<?xml version="1.0" encoding="UTF-8" standalone="no"?>
<!-- Created with Inkscape (http://www.inkscape.org/) -->

<svg
   width="103.99402mm"
   height="68.333511mm"
   viewBox="0 0 103.99402 68.333511"
   version="1.1"
   id="svg1"
   inkscape:version="1.3.2 (091e20e, 2023-11-25, custom)"
   sodipodi:docname="conventional_flaps.svg"
   xmlns:inkscape="http://www.inkscape.org/namespaces/inkscape"
   xmlns:sodipodi="http://sodipodi.sourceforge.net/DTD/sodipodi-0.dtd"
   xmlns="http://www.w3.org/2000/svg"
   xmlns:svg="http://www.w3.org/2000/svg">
  <sodipodi:namedview
     id="namedview1"
     pagecolor="#ffffff"
     bordercolor="#666666"
     borderopacity="1.0"
     inkscape:showpageshadow="2"
     inkscape:pageopacity="0.0"
     inkscape:pagecheckerboard="0"
     inkscape:deskcolor="#d1d1d1"
     inkscape:document-units="mm"
     showguides="true"
     inkscape:zoom="2.4075855"
     inkscape:cx="137.68981"
     inkscape:cy="55.865098"
     inkscape:window-width="3840"
     inkscape:window-height="2089"
     inkscape:window-x="-8"
     inkscape:window-y="162"
     inkscape:window-maximized="1"
     inkscape:current-layer="layer1">
    <sodipodi:guide
       position="51.997007,108.08981"
       orientation="1,0"
       id="guide1"
       inkscape:locked="false" />
  </sodipodi:namedview>
  <defs
     id="defs1">
    <inkscape:path-effect
       effect="mirror_symmetry"
       start_point="54.186587,135.05828"
       end_point="54.186587,140.29007"
       center_point="54.186587,137.67417"
       id="path-effect4"
       is_visible="true"
       lpeversion="1.2"
       lpesatellites=""
       mode="free"
       discard_orig_path="false"
       fuse_paths="false"
       oposite_fuse="false"
       split_items="false"
       split_open="false"
       link_styles="false" />
    <inkscape:path-effect
       effect="mirror_symmetry"
       start_point="54.186587,134.91893"
       end_point="54.186587,141.38903"
       center_point="54.186587,138.15398"
       id="path-effect3"
       is_visible="true"
       lpeversion="1.2"
       lpesatellites=""
       mode="free"
       discard_orig_path="false"
       fuse_paths="false"
       oposite_fuse="false"
       split_items="false"
       split_open="false"
       link_styles="false" />
    <inkscape:path-effect
       effect="mirror_symmetry"
       start_point="49.35117,88.305594"
       end_point="49.351185,93.04287"
       center_point="49.351178,90.674232"
       id="path-effect2"
       is_visible="true"
       lpeversion="1.2"
       lpesatellites=""
       mode="free"
       discard_orig_path="false"
       fuse_paths="false"
       oposite_fuse="false"
       split_items="false"
       split_open="false"
       link_styles="false" />
    <inkscape:path-effect
       effect="mirror_symmetry"
       start_point="49.351176,91.888982"
       end_point="49.351176,102.65528"
       center_point="49.351176,97.272131"
       id="path-effect1"
       is_visible="true"
       lpeversion="1.2"
       lpesatellites=""
       mode="free"
       discard_orig_path="false"
       fuse_paths="false"
       oposite_fuse="false"
       split_items="false"
       split_open="false"
       link_styles="false" />
    <inkscape:path-effect
       effect="mirror_symmetry"
       start_point="59.245477,61.408809"
       end_point="59.24548,126.64139"
       center_point="59.245479,94.025099"
       id="path-effect14"
       is_visible="true"
       lpeversion="1.2"
       lpesatellites=""
       mode="free"
       discard_orig_path="false"
       fuse_paths="false"
       oposite_fuse="false"
       split_items="false"
       split_open="false"
       link_styles="false" />
    <inkscape:path-effect
       effect="mirror_symmetry"
       start_point="59.245472,110.75429"
       end_point="59.24548,126.64137"
       center_point="59.245476,118.69783"
       id="path-effect12"
       is_visible="true"
       lpeversion="1.2"
       lpesatellites=""
       mode="free"
       discard_orig_path="false"
       fuse_paths="false"
       oposite_fuse="false"
       split_items="false"
       split_open="false"
       link_styles="false" />
    <inkscape:path-effect
       effect="mirror_symmetry"
       start_point="59.245458,117.12872"
       end_point="59.24548,126.64137"
       center_point="59.245469,121.88504"
       id="path-effect13"
       is_visible="true"
       lpeversion="1.2"
       lpesatellites=""
       mode="free"
       discard_orig_path="false"
       fuse_paths="false"
       oposite_fuse="false"
       split_items="false"
       split_open="false"
       link_styles="false" />
    <inkscape:path-effect
       effect="mirror_symmetry"
       start_point="59.24548,141.96302"
       end_point="59.24548,155.10273"
       center_point="59.24548,148.53287"
       id="path-effect11"
       is_visible="true"
       lpeversion="1.2"
       lpesatellites=""
       mode="free"
       discard_orig_path="false"
       fuse_paths="false"
       oposite_fuse="false"
       split_items="false"
       split_open="false"
       link_styles="false" />
    <inkscape:path-effect
       effect="mirror_symmetry"
       start_point="156.4764,103.93093"
       end_point="156.47624,142.613"
       center_point="156.47632,123.27196"
       id="path-effect15"
       is_visible="true"
       lpeversion="1.2"
       lpesatellites=""
       mode="free"
       discard_orig_path="false"
       fuse_paths="false"
       oposite_fuse="false"
       split_items="false"
       split_open="false"
       link_styles="false" />
    <inkscape:path-effect
       effect="mirror_symmetry"
       start_point="156.47639,133.11555"
       end_point="156.4764,137.72369"
       center_point="156.4764,135.41962"
       id="path-effect17"
       is_visible="true"
       lpeversion="1.2"
       lpesatellites=""
       mode="free"
       discard_orig_path="false"
       fuse_paths="false"
       oposite_fuse="false"
       split_items="false"
       split_open="false"
       link_styles="false" />
    <inkscape:path-effect
       effect="mirror_symmetry"
       start_point="156.4764,103.93093"
       end_point="156.47624,142.613"
       center_point="156.47632,123.27196"
       id="path-effect15-0"
       is_visible="true"
       lpeversion="1.2"
       lpesatellites=""
       mode="free"
       discard_orig_path="false"
       fuse_paths="false"
       oposite_fuse="false"
       split_items="false"
       split_open="false"
       link_styles="false" />
    <inkscape:path-effect
       effect="mirror_symmetry"
       start_point="59.245458,142.55682"
       end_point="59.245458,155.06712"
       center_point="59.245458,148.81197"
       id="path-effect9"
       is_visible="true"
       lpeversion="1.2"
       lpesatellites=""
       mode="free"
       discard_orig_path="false"
       fuse_paths="false"
       oposite_fuse="false"
       split_items="false"
       split_open="false"
       link_styles="false" />
    <inkscape:path-effect
       effect="mirror_symmetry"
       start_point="59.245458,149.87087"
       end_point="59.245458,155.06683"
       center_point="59.245458,152.46885"
       id="path-effect10"
       is_visible="true"
       lpeversion="1.2"
       lpesatellites=""
       mode="free"
       discard_orig_path="false"
       fuse_paths="false"
       oposite_fuse="false"
       split_items="false"
       split_open="false"
       link_styles="false" />
  </defs>
  <g
     inkscape:label="Ebene 1"
     inkscape:groupmode="layer"
     id="layer1"
     transform="translate(-2.189578,-110.73501)"
     style="display:inline">
    <path
       id="path1"
       style="display:none;fill:#cac6c8;fill-opacity:1;stroke-width:3.24501;stroke-linecap:square;stroke-linejoin:bevel"
       d="m 59.08994,61.396799 c -0.707301,-0.01349 -5.307789,0.306468 -6.764578,2.57198 -1.456789,2.265512 -0.890231,5.735383 -1.121769,8.92548 l -0.0062,-0.02894 c 0,0 -37.49133,3.938157 -39.541256,4.765084 -2.049926,0.826926 -5.0236329,10.305458 -4.295345,11.394653 4.380061,-0.03798 36.049167,-0.743581 43.994214,-1.139982 0.229953,3.973102 0.531978,7.845305 0.782898,11.027234 0.825182,10.464172 5.339722,27.752762 7.107576,27.729062 -2.2e-5,-39.494069 7e-6,-65.235787 7e-6,-65.235787 l -0.155546,-0.0088 m 0,0 -1e-6,1.6e-5 m 0.311074,0 c 0.707301,-0.01349 5.307789,0.306467 6.764578,2.571979 1.456789,2.265512 0.890232,5.735383 1.12177,8.92548 l 0.0062,-0.02894 c 0,0 37.491328,3.938154 39.541258,4.765081 2.04992,0.826925 5.02363,10.305457 4.29534,11.394652 -4.38006,-0.03798 -36.049163,-0.743577 -43.99421,-1.139978 -0.229952,3.973102 -0.531977,7.845305 -0.782897,11.027234 -0.825181,10.464173 -5.339719,27.752763 -7.107573,27.729063 1.8e-5,-39.494069 -1.3e-5,-65.235787 -1.3e-5,-65.235787 l 0.155546,-0.0088 m 0,0 1e-6,1.6e-5"
       sodipodi:nodetypes="czccsccsccccc"
       transform="translate(-5.0588911,52.427125)"
       inkscape:original-d="m 59.08994,61.396799 c -0.707301,-0.01349 -5.307789,0.306468 -6.764578,2.57198 -1.456789,2.265512 -0.890231,5.735383 -1.121769,8.92548 l -0.0062,-0.02894 c 0,0 -37.49133,3.938157 -39.541256,4.765084 -2.049926,0.826926 -5.0236329,10.305458 -4.295345,11.394653 4.380061,-0.03798 36.049167,-0.743581 43.994214,-1.139982 0.229953,3.973102 0.531978,7.845305 0.782898,11.027234 0.825182,10.464172 5.339722,27.752762 7.107576,27.729062 -2.2e-5,-39.494069 7e-6,-65.235787 7e-6,-65.235787 l -0.155546,-0.0088 m 0,0 -1e-6,1.6e-5"
       inkscape:path-effect="#path-effect14" />
    <path
       id="rect2-1"
       style="display:none;fill:#4f8814;fill-opacity:1;stroke-width:3.24501;stroke-linecap:square;stroke-linejoin:bevel"
       d="m 13.815177,88.801815 c -3.478654,0.04188 -6.2539326,0.791555 -6.1918697,1.633492 0.0662,0.898066 3.5294467,0.943412 6.8187057,1.036112 3.289258,0.0927 7.161836,-0.395324 7.161836,-0.395324 v 0.81287 h 0.591695 1.176156 0.591695 v -0.81287 c 0,0 3.872578,0.488024 7.161837,0.395324 3.289259,-0.0927 6.752505,-0.138046 6.818705,-1.036112 0.06206,-0.841937 -2.713215,-1.591612 -6.19187,-1.633492 -0.23191,-0.0027 -0.467339,-0.0022 -0.704866,0.0015 -3.800451,0.05885 -7.083806,0.660425 -7.083806,0.660425 H 23.3717 22.195544 21.603849 c 0,0 -3.283355,-0.601576 -7.083805,-0.660425 -0.237528,-0.0037 -0.472957,-0.0042 -0.704867,-0.0015 z m 71.071989,-2.25e-4 c 3.478654,0.04186 6.253938,0.791515 6.19188,1.633453 -0.06619,0.898066 -3.529441,0.943434 -6.818699,1.036155 -3.289257,0.09272 -7.161838,-0.395279 -7.161838,-0.395279 l 5e-6,0.81287 -0.591695,4e-6 -1.176156,7e-6 -0.591695,4e-6 -5e-6,-0.81287 c 0,0 -3.872575,0.488049 -7.161835,0.39537 -3.28926,-0.09268 -6.752506,-0.138004 -6.818712,-1.036069 -0.06206,-0.841937 2.713205,-1.591629 6.19186,-1.633531 0.23191,-0.0027 0.467339,-0.0022 0.704866,0.0015 3.800452,0.05883 7.08381,0.66038 7.08381,0.66038 l 0.591695,-4e-6 1.176156,-7e-6 0.591695,-4e-6 c 0,0 3.283352,-0.601597 7.083801,-0.66047 0.237528,-0.0037 0.472957,-0.0042 0.704867,-0.0015 z"
       inkscape:path-effect="#path-effect2"
       inkscape:original-d="m 13.815177,88.801815 c -3.478654,0.04188 -6.2539326,0.791555 -6.1918697,1.633492 0.0662,0.898066 3.5294467,0.943412 6.8187057,1.036112 3.289258,0.0927 7.161836,-0.395324 7.161836,-0.395324 v 0.81287 h 0.591695 1.176156 0.591695 v -0.81287 c 0,0 3.872578,0.488024 7.161837,0.395324 3.289259,-0.0927 6.752505,-0.138046 6.818705,-1.036112 0.06206,-0.841937 -2.713215,-1.591612 -6.19187,-1.633492 -0.23191,-0.0027 -0.467339,-0.0022 -0.704866,0.0015 -3.800451,0.05885 -7.083806,0.660425 -7.083806,0.660425 H 23.3717 22.195544 21.603849 c 0,0 -3.283355,-0.601576 -7.083805,-0.660425 -0.237528,-0.0037 -0.472957,-0.0042 -0.704867,-0.0015 z"
       transform="translate(4.8354114,31.049127)" />
    <path
       id="rect2-1-1"
       style="display:none;fill:#4f8814;fill-opacity:1;stroke-width:3.24501;stroke-linecap:square;stroke-linejoin:bevel"
       d="m 45.078243,110.73677 c -3.478658,0.0419 -6.253933,0.79156 -6.19187,1.6335 0.0662,0.89806 3.529442,0.94341 6.818704,1.03611 3.289261,0.0927 7.161836,-0.39533 7.161836,-0.39533 v 0.81287 h 1.767851 v -2.42517 h -1.76785 c 0,0 -3.283351,-0.60158 -7.083806,-0.66043 -0.237527,-0.004 -0.472955,-0.004 -0.704865,-0.002 z" />
    <path
       id="rect2-1-0-6"
       style="display:none;fill:#4f8814;fill-opacity:1;stroke-width:3.24501;stroke-linecap:square;stroke-linejoin:bevel"
       d="m 63.014721,110.73677 c 3.478657,0.0419 6.253933,0.79156 6.191869,1.6335 -0.0662,0.89806 -3.529443,0.94341 -6.818704,1.03611 -3.289262,0.0927 -7.161838,-0.39533 -7.161838,-0.39533 v 0.81287 h -1.76785 v -2.42517 h 1.76785 c 0,0 3.283353,-0.60158 7.083807,-0.66043 0.237528,-0.004 0.472956,-0.004 0.704866,-0.002 z" />
    <path
       style="display:none;fill:#cac6c8;fill-opacity:1;stroke-width:3.24501;stroke-linecap:square;stroke-linejoin:bevel"
       d="m 56.085937,110.97408 c 0,0 -16.246974,5.09424 -17.698182,6.75355 -1.451208,1.65931 0.07771,8.91376 0.07771,8.91376 L 57.4776,120.83595 Z m 6.31907,0 c 0,0 16.246979,5.09422 17.698189,6.75353 1.45121,1.65931 -0.0777,8.91376 -0.0777,8.91376 l -19.012141,-5.80542 z"
       id="path3"
       sodipodi:nodetypes="czccc"
       inkscape:path-effect="#path-effect12"
       inkscape:original-d="m 56.085937,110.97408 c 0,0 -16.246974,5.09424 -17.698182,6.75355 -1.451208,1.65931 0.07771,8.91376 0.07771,8.91376 L 57.4776,120.83595 Z"
       transform="translate(-5.0588911,52.427125)" />
    <path
       style="display:none;fill:#d40000;fill-opacity:1;stroke-width:3.24501;stroke-linecap:square;stroke-linejoin:bevel"
       d="m 40.682169,125.96451 -0.04088,-4.5069 12.744111,-4.27394 -0.108939,4.93512 z m 37.126619,-9e-5 0.04086,-4.5069 -12.744131,-4.27388 0.108962,4.93512 z"
       id="path5"
       inkscape:path-effect="#path-effect13"
       inkscape:original-d="m 40.682169,125.96451 -0.04088,-4.5069 12.744111,-4.27394 -0.108939,4.93512 z"
       transform="translate(-5.0588911,52.427125)" />
    <path
       style="display:none;fill:#d40000;fill-opacity:1;stroke-width:3.24501;stroke-linecap:square;stroke-linejoin:bevel"
       d="m 6.1681119,141.38903 0.891616,-4.66232 17.4454451,-0.34968 -0.654798,4.61779 z m 96.0369481,0 -0.89161,-4.66232 -17.445449,-0.34968 0.654798,4.61779 z"
       id="path5-8"
       sodipodi:nodetypes="ccccc"
       inkscape:path-effect="#path-effect4"
       inkscape:original-d="m 6.1681119,141.38903 0.891616,-4.66232 17.4454451,-0.34968 -0.654798,4.61779 z" />
    <path
       id="rect5"
       style="display:none;fill:#cac6c8;stroke-width:3.24501;stroke-linecap:square;stroke-linejoin:bevel"
       d="m 20.216884,92.094513 c 0.43096,-0.669908 3.528644,-1.212585 5.289435,0 -0.05423,2.823716 0,6.439674 0,6.439674 h -5.289435 c 0,0 -0.01193,-3.789672 0,-6.439674 z m 58.268584,0 c -0.43096,-0.669908 -3.528644,-1.212585 -5.289435,0 0.05423,2.823716 0,6.439674 0,6.439674 h 5.289435 c 0,0 0.01193,-3.789672 0,-6.439674 z"
       sodipodi:nodetypes="ccccc"
       inkscape:path-effect="#path-effect1"
       inkscape:original-d="m 20.216884,92.094513 c 0.43096,-0.669908 3.528644,-1.212585 5.289435,0 -0.05423,2.823716 0,6.439674 0,6.439674 h -5.289435 c 0,0 -0.01193,-3.789672 0,-6.439674 z"
       transform="translate(4.8354114,31.049127)" />
    <path
       style="display:inline;fill:#d40000;fill-opacity:1;stroke-width:3.24501;stroke-linecap:square;stroke-linejoin:bevel"
       d="m 26.753414,140.88114 0.485029,-4.50411 17.618907,-0.46904 -0.41453,4.48584 z m 54.866346,0 -0.485029,-4.50411 -17.618907,-0.46904 0.41453,4.48584 z"
       id="path5-8-5"
       sodipodi:nodetypes="ccccc"
       inkscape:path-effect="#path-effect3"
       inkscape:original-d="m 26.753414,140.88114 0.485029,-4.50411 17.618907,-0.46904 -0.41453,4.48584 z" />
    <path
       d="M 105.32689,149.6109"
       style="display:none;fill:#d40000;fill-opacity:1;stroke-width:3.24501;stroke-linecap:square;stroke-linejoin:bevel"
       id="path1-8" />
    <path
       style="display:none;fill:#cac6c8;fill-opacity:1;stroke-width:3.24501;stroke-linecap:square;stroke-linejoin:bevel"
       d="m 59.24548,141.96302 c 0,0 -17.216757,2.56664 -18.667965,4.22595 -1.451208,1.65931 0.07771,8.91376 0.07771,8.91376 l 18.590233,-0.0359 z m 0,0 c 0,0 17.216757,2.56664 18.667965,4.22595 1.451208,1.65931 -0.07771,8.91376 -0.07771,8.91376 l -18.590233,-0.0359 z"
       id="path3-0"
       sodipodi:nodetypes="czccc"
       inkscape:path-effect="#path-effect11"
       inkscape:original-d="m 59.24548,141.96302 c 0,0 -17.216757,2.56664 -18.667965,4.22595 -1.451208,1.65931 0.07771,8.91376 0.07771,8.91376 l 18.590233,-0.0359 z"
       transform="translate(-5.0588709,21.549695)" />
    <path
       d="M 100.49148,180.07155"
       style="display:none;fill:#d40000;fill-opacity:1;stroke-width:3.24501;stroke-linecap:square;stroke-linejoin:bevel"
       id="path1-8-3" />
    <path
       style="display:none;fill:#d40000;fill-opacity:1;stroke-width:3.24501;stroke-linecap:square;stroke-linejoin:bevel"
       d="m 59.245458,142.55682 c 0,0 -1.4708,6.1471 -1.48777,8.11951 -0.017,1.97241 0.14413,4.42153 1.48777,4.3905 -0.0024,-1.23187 -0.0037,-2.58852 -0.0042,-3.94017 -0.0017,-4.31033 0.0042,-8.56984 0.0042,-8.56984 z m 0,0 c 0,0 1.4708,6.1471 1.48777,8.11951 0.017,1.97241 -0.14413,4.42153 -1.48777,4.3905 0.0024,-1.23187 0.0037,-2.58852 0.0042,-3.94017 0.0017,-4.31033 -0.0042,-8.56984 -0.0042,-8.56984 z"
       id="path7-5"
       sodipodi:nodetypes="czcsc"
       inkscape:path-effect="#path-effect9"
       inkscape:original-d="m 59.245458,142.55682 c 0,0 -1.4708,6.1471 -1.48777,8.11951 -0.017,1.97241 0.14413,4.42153 1.48777,4.3905 -0.0024,-1.23187 -0.0037,-2.58852 -0.0042,-3.94017 -0.0017,-4.31033 0.0042,-8.56984 0.0042,-8.56984 z"
       transform="matrix(1,0,0,-1,-5.0588709,319.17362)" />
    <path
       style="display:none;fill:#d40000;fill-opacity:1;stroke-width:3.24501;stroke-linecap:square;stroke-linejoin:bevel"
       d="m 43.01138,155.10273 v -4.69889 l 13.210363,-0.27197 -0.03885,4.93525 -13.288071,0.0356 m 32.584714,1e-5 v -4.69889 l -13.210363,-0.27197 0.03885,4.93525 13.288071,0.0356"
       id="path8"
       inkscape:path-effect="#path-effect10"
       inkscape:original-d="m 43.01138,155.10273 v -4.69889 l 13.210363,-0.27197 -0.03885,4.93525 -13.288071,0.0356"
       transform="translate(-5.0588709,21.549695)" />
  </g>
</svg>
