<?xml version="1.0" encoding="UTF-8" standalone="no"?>
<svg
   id="svg1541"
   version="1.1"
   viewBox="0 0 44.533725 5.0156703"
   height="5.0156698mm"
   width="44.533726mm"
   sodipodi:docname="light-wide-2-compact.svg"
   inkscape:version="1.3.2 (091e20e, 2023-11-25, custom)"
   xmlns:inkscape="http://www.inkscape.org/namespaces/inkscape"
   xmlns:sodipodi="http://sodipodi.sourceforge.net/DTD/sodipodi-0.dtd"
   xmlns="http://www.w3.org/2000/svg"
   xmlns:svg="http://www.w3.org/2000/svg"
   xmlns:rdf="http://www.w3.org/1999/02/22-rdf-syntax-ns#"
   xmlns:cc="http://creativecommons.org/ns#"
   xmlns:dc="http://purl.org/dc/elements/1.1/">
  <sodipodi:namedview
     id="namedview1"
     pagecolor="#ffffff"
     bordercolor="#666666"
     borderopacity="1.0"
     inkscape:showpageshadow="2"
     inkscape:pageopacity="0.0"
     inkscape:pagecheckerboard="0"
     inkscape:deskcolor="#d1d1d1"
     inkscape:document-units="mm"
     inkscape:zoom="11.985612"
     inkscape:cx="75.882648"
     inkscape:cy="-25.488894"
     inkscape:window-width="3840"
     inkscape:window-height="2089"
     inkscape:window-x="-8"
     inkscape:window-y="162"
     inkscape:window-maximized="1"
     inkscape:current-layer="svg1541" />
  <defs
     id="defs1535" />
  <metadata
     id="metadata1538">
    <rdf:RDF>
      <cc:Work
         rdf:about="">
        <dc:format>image/svg+xml</dc:format>
        <dc:type
           rdf:resource="http://purl.org/dc/dcmitype/StillImage" />
        <dc:title />
      </cc:Work>
    </rdf:RDF>
  </metadata>
  <g
     id="g2"
     transform="translate(-8.9018359,-7.3358708)"
     inkscape:export-filename="wingflight_logo_gray_full.png"
     inkscape:export-xdpi="800"
     inkscape:export-ydpi="800">
    <path
       id="path3150-69"
       style="font-style:italic;font-variant:normal;font-weight:900;font-stretch:normal;font-size:6.13982px;line-height:1.25;font-family:'Helvetica Now Text';-inkscape-font-specification:'Helvetica Now Text Heavy Italic';letter-spacing:0px;word-spacing:0px;display:inline;fill:#ffffff;fill-opacity:1;stroke:none;stroke-width:0.228084"
       d="m 33.037444,7.4492605 -0.378985,1.2339 h -1.99515 l -0.20782,0.67365 h 1.65603 l -0.35378,1.1672095 h -1.65602 l -0.512671,1.674121 h -1.26605 l 1.44762,-4.7488805 z" />
    <path
       id="path3152-9"
       style="font-style:italic;font-variant:normal;font-weight:900;font-stretch:normal;font-size:6.13982px;line-height:1.25;font-family:'Helvetica Now Text';-inkscape-font-specification:'Helvetica Now Text Heavy Italic';letter-spacing:0px;word-spacing:0px;display:inline;fill:#ffffff;fill-opacity:1;stroke:none;stroke-width:0.228084"
       d="m 34.701604,7.4492605 -1.05718,3.4682795 h 1.79732 l -0.39043,1.280601 h -3.063375 l 1.447625,-4.7488805 z" />
    <path
       id="path3154-7"
       style="font-style:italic;font-variant:normal;font-weight:900;font-stretch:normal;font-size:6.13982px;line-height:1.25;font-family:'Helvetica Now Text';-inkscape-font-specification:'Helvetica Now Text Heavy Italic';letter-spacing:0px;word-spacing:0px;display:inline;fill:#ffffff;fill-opacity:1;stroke:none;stroke-width:0.228084"
       d="m 36.742314,12.198141 h -1.26604 l 1.44761,-4.7488805 h 1.26605 z"
       sodipodi:nodetypes="ccccc" />
    <path
       id="path3156-7"
       style="font-style:italic;font-variant:normal;font-weight:900;font-stretch:normal;font-size:6.13982px;line-height:1.25;font-family:'Helvetica Now Text';-inkscape-font-specification:'Helvetica Now Text Heavy Italic';letter-spacing:0px;word-spacing:0px;display:inline;fill:#ffffff;fill-opacity:1;stroke:none;stroke-width:0.228084"
       d="m 40.454764,9.5835905 h 1.71255 l -0.79313,2.6145505 h -0.84214 l 0.0755,-0.426871 q -0.49581,0.580271 -1.25882,0.580271 -0.71216,0 -1.07876,-0.553591 -0.36659,-0.55359 -0.25417,-1.46068 0.0405,-0.32681 0.1481,-0.6936495 0.32689,-1.08718 1.02465,-1.7008 0.69129,-0.60695 1.57299,-0.60695 0.72911,0 1.15331,0.45355 0.41774,0.46021 0.32434,1.21389 h -1.23778 q -0.0196,-0.48022 -0.49438,-0.48022 -0.35608,0 -0.64444,0.32015 -0.28754,0.31348 -0.46766,0.90042 -0.0921,0.2868095 -0.13008,0.5936095 -0.0529,0.42687 0.0806,0.62696 0.13911,0.20009 0.47823,0.20009 0.54824,0 0.84209,-0.54692 h -0.52563 z" />
    <path
       id="path3158-5"
       style="font-style:italic;font-variant:normal;font-weight:900;font-stretch:normal;font-size:6.13982px;line-height:1.25;font-family:'Helvetica Now Text';-inkscape-font-specification:'Helvetica Now Text Heavy Italic';letter-spacing:0px;word-spacing:0px;display:inline;fill:#ffffff;fill-opacity:1;stroke:none;stroke-width:0.228084"
       d="m 45.411304,9.0633405 0.49393,-1.61408 h 1.26604 l -1.44763,4.7488805 h -1.26605 l 0.56326,-1.854201 h -1.13604 l -0.56326,1.854201 h -1.26604 l 1.44762,-4.7488805 h 1.26604 l -0.49393,1.61408 z" />
    <path
       id="path3160-2"
       style="font-style:italic;font-variant:normal;font-weight:900;font-stretch:normal;font-size:6.13982px;line-height:1.25;font-family:'Helvetica Now Text';-inkscape-font-specification:'Helvetica Now Text Heavy Italic';letter-spacing:0px;word-spacing:0px;display:inline;fill:#ffffff;fill-opacity:1;stroke:none;stroke-width:0.228084"
       d="m 47.653364,7.4492605 h 3.589 l -0.39044,1.28059 h -1.15865 l -1.05718,3.4682905 h -1.26605 l 1.05719,-3.4682905 h -1.1643 z" />
    <path
       id="path3156-2-5"
       style="font-style:italic;font-variant:normal;font-weight:900;font-stretch:normal;font-size:6.13982px;line-height:1.25;font-family:'Helvetica Now Text';-inkscape-font-specification:'Helvetica Now Text Heavy Italic';letter-spacing:0px;word-spacing:0px;display:inline;fill:#d40000;fill-opacity:1;stroke:none;stroke-width:0.228084"
       d="m 26.731428,9.5835905 h 1.71255 l -0.79313,2.6145505 h -0.84215 l 0.0755,-0.426871 q -0.49581,0.580271 -1.25882,0.580271 -0.71215,0 -1.07875,-0.553591 -0.36659,-0.55359 -0.25418,-1.46068 0.0405,-0.32681 0.1481,-0.6936495 0.3269,-1.08718 1.02466,-1.7008 0.69128,-0.60695 1.57299,-0.60695 0.7291,0 1.15331,0.45355 0.41774,0.46021 0.32434,1.21389 h -1.23779 q -0.0196,-0.48022 -0.49437,-0.48022 -0.35608,0 -0.64444,0.32015 -0.28754,0.31348 -0.46766,0.90042 -0.0921,0.2868095 -0.13009,0.5936095 -0.0529,0.42687 0.0806,0.62696 0.13912,0.20009 0.47824,0.20009 0.54823,0 0.84209,-0.54692 h -0.52563 z" />
    <path
       id="path1-43"
       style="font-style:italic;font-variant:normal;font-weight:900;font-stretch:normal;font-size:6.13982px;line-height:1.25;font-family:'Helvetica Now Text';-inkscape-font-specification:'Helvetica Now Text Heavy Italic';letter-spacing:0px;word-spacing:0px;fill:#d40000;fill-opacity:1;stroke:none;stroke-width:0.228084"
       d="m 20.600209,7.4491105 -1.447973,4.7490605 h 1.266072 l 0.882117,-2.8938805 0.448551,2.8938805 h 0.240296 0.632519 0.633037 L 24.702801,7.4491105 H 23.436729 L 22.429555,10.75382 21.989272,7.4491105 h -0.12299 -0.853178 z" />
    <path
       d="m 18.111128,12.198141 h -1.26604 l 1.44761,-4.7488805 h 1.26604 z"
       style="font-style:italic;font-variant:normal;font-weight:900;font-stretch:normal;font-size:6.13982px;line-height:1.25;font-family:'Helvetica Now Text';-inkscape-font-specification:'Helvetica Now Text Heavy Italic';letter-spacing:0px;word-spacing:0px;fill:#d40000;fill-opacity:1;stroke:none;stroke-width:0.228084"
       id="path1-0-8" />
    <path
       id="path1-0-7-5"
       style="font-style:italic;font-variant:normal;font-weight:900;font-stretch:normal;font-size:6.13982px;line-height:1.25;font-family:'Helvetica Now Text';-inkscape-font-specification:'Helvetica Now Text Heavy Italic';letter-spacing:0px;word-spacing:0px;fill:#d40000;fill-opacity:1;stroke:none;stroke-width:0.228084"
       d="m 10.069586,7.4491105 1.447974,4.7490605 h 1.266072 0.01757 l 0.819072,-2.6871705 0.819071,2.6871705 h 1.266073 L 17.152875,7.4491105 H 15.886802 L 15.072382,10.1213 14.257961,7.4491105 h -0.0093 -1.256771 -0.0093 L 12.159384,10.15023 11.335662,7.4491105 Z" />
  </g>
</svg>
