{
	"asset":{
		"generator":"Khronos glTF Blender I/O v4.3.47",
		"version":"2.0"
	},
	"scene":0,
	"scenes":[
		{
			"name":"Scene",
			"nodes":[
				0,
				1,
				2,
				3,
				4,
				5,
				6,
				7,
				8,
				9,
				10,
				11,
				12,
				13
			]
		}
	],
	"nodes":[
		{
			"mesh":0,
			"name":"K\u00f6rper2"
		},
		{
			"mesh":1,
			"name":"K\u00f6rper3"
		},
		{
			"mesh":2,
			"name":"K\u00f6rper5"
		},
		{
			"mesh":3,
			"name":"K\u00f6rper6"
		},
		{
			"mesh":4,
			"name":"K\u00f6rper12"
		},
		{
			"mesh":5,
			"name":"K\u00f6rper15"
		},
		{
			"mesh":6,
			"name":"K\u00f6rper17"
		},
		{
			"mesh":7,
			"name":"K\u00f6rper19"
		},
		{
			"mesh":8,
			"name":"K\u00f6rper20"
		},
		{
			"mesh":9,
			"name":"K\u00f6rper21"
		},
		{
			"mesh":10,
			"name":"K\u00f6rper22"
		},
		{
			"mesh":11,
			"name":"K\u00f6rper16"
		},
		{
			"mesh":12,
			"name":"K\u00f6rper23"
		},
		{
			"mesh":13,
			"name":"K\u00f6rper24"
		}
	],
	"materials":[
		{
			"name":"Farbe_-_Metallic_(Blau)",
			"pbrMetallicRoughness":{
				"baseColorFactor":[
					0,
					0,
					0,
					1
				],
				"metallicFactor":0
			}
		},
		{
			"name":"Kunststoff_-_matt_(Rot)",
			"pbrMetallicRoughness":{
				"baseColorFactor":[
					0.16005824506282806,
					0,
					0,
					1
				],
				"metallicFactor":0
			}
		},
		{
			"name":"Kunststoff_-_matt_(Wei\u00df)",
			"pbrMetallicRoughness":{
				"baseColorFactor":[
					0.9647060036659241,
					0.9647060036659241,
					0.9529410004615784,
					1
				],
				"metallicFactor":0
			}
		},
		{
			"name":"Farbe_-_Metallic_(Schwarz)",
			"pbrMetallicRoughness":{
				"baseColorFactor":[
					0.09803900122642517,
					0.09803900122642517,
					0.09803900122642517,
					1
				],
				"metallicFactor":0
			}
		},
		{
			"name":"Stahl_-_satiniert",
			"pbrMetallicRoughness":{
				"baseColorFactor":[
					0.6274510025978088,
					0.6274510025978088,
					0.6274510025978088,
					1
				],
				"metallicFactor":0
			}
		},
		{
			"alphaMode":"BLEND",
			"name":"Glas_(Grau)",
			"pbrMetallicRoughness":{
				"baseColorFactor":[
					0.7019609808921814,
					0.7019609808921814,
					0.7019609808921814,
					0.41284406185150146
				],
				"metallicFactor":0,
				"roughnessFactor":0.7370030879974365
			}
		}
	],
	"meshes":[
		{
			"name":"K\u00f6rper2_1",
			"primitives":[
				{
					"attributes":{
						"POSITION":0,
						"NORMAL":1,
						"TEXCOORD_0":2
					},
					"indices":3,
					"material":0
				}
			]
		},
		{
			"name":"K\u00f6rper3_1",
			"primitives":[
				{
					"attributes":{
						"POSITION":4,
						"NORMAL":5,
						"TEXCOORD_0":6
					},
					"indices":7,
					"material":0
				}
			]
		},
		{
			"name":"K\u00f6rper5_1",
			"primitives":[
				{
					"attributes":{
						"POSITION":8,
						"NORMAL":9,
						"TEXCOORD_0":10
					},
					"indices":11,
					"material":0
				}
			]
		},
		{
			"name":"K\u00f6rper6_1",
			"primitives":[
				{
					"attributes":{
						"POSITION":12,
						"NORMAL":13,
						"TEXCOORD_0":14
					},
					"indices":15,
					"material":0
				}
			]
		},
		{
			"name":"K\u00f6rper12_1",
			"primitives":[
				{
					"attributes":{
						"POSITION":16,
						"NORMAL":17,
						"TEXCOORD_0":18
					},
					"indices":19,
					"material":1
				}
			]
		},
		{
			"name":"K\u00f6rper15_1",
			"primitives":[
				{
					"attributes":{
						"POSITION":20,
						"NORMAL":21,
						"TEXCOORD_0":22
					},
					"indices":23,
					"material":0
				}
			]
		},
		{
			"name":"K\u00f6rper17_1",
			"primitives":[
				{
					"attributes":{
						"POSITION":24,
						"NORMAL":25,
						"TEXCOORD_0":26
					},
					"indices":27,
					"material":2
				}
			]
		},
		{
			"name":"K\u00f6rper19_1",
			"primitives":[
				{
					"attributes":{
						"POSITION":28,
						"NORMAL":29,
						"TEXCOORD_0":30
					},
					"indices":31,
					"material":2
				}
			]
		},
		{
			"name":"K\u00f6rper20_1",
			"primitives":[
				{
					"attributes":{
						"POSITION":32,
						"NORMAL":33,
						"TEXCOORD_0":34
					},
					"indices":35,
					"material":3
				}
			]
		},
		{
			"name":"K\u00f6rper21_1",
			"primitives":[
				{
					"attributes":{
						"POSITION":36,
						"NORMAL":37,
						"TEXCOORD_0":38
					},
					"indices":39,
					"material":2
				}
			]
		},
		{
			"name":"K\u00f6rper22_1",
			"primitives":[
				{
					"attributes":{
						"POSITION":40,
						"NORMAL":41,
						"TEXCOORD_0":42
					},
					"indices":43,
					"material":3
				}
			]
		},
		{
			"name":"K\u00f6rper16_1",
			"primitives":[
				{
					"attributes":{
						"POSITION":44,
						"NORMAL":45,
						"TEXCOORD_0":46
					},
					"indices":47,
					"material":2
				}
			]
		},
		{
			"name":"K\u00f6rper23_1",
			"primitives":[
				{
					"attributes":{
						"POSITION":48,
						"NORMAL":49,
						"TEXCOORD_0":50
					},
					"indices":51,
					"material":4
				}
			]
		},
		{
			"name":"K\u00f6rper24_1",
			"primitives":[
				{
					"attributes":{
						"POSITION":52,
						"NORMAL":53,
						"TEXCOORD_0":54
					},
					"indices":55,
					"material":5
				}
			]
		}
	],
	"accessors":[
		{
			"bufferView":0,
			"componentType":5126,
			"count":1759,
			"max":[
				1.6938469409942627,
				0.40304699540138245,
				3.8593289852142334
			],
			"min":[
				-1.4667760133743286,
				0.3119890093803406,
				3.4503440856933594
			],
			"type":"VEC3"
		},
		{
			"bufferView":1,
			"componentType":5126,
			"count":1759,
			"type":"VEC3"
		},
		{
			"bufferView":2,
			"componentType":5126,
			"count":1759,
			"type":"VEC2"
		},
		{
			"bufferView":3,
			"componentType":5123,
			"count":9090,
			"type":"SCALAR"
		},
		{
			"bufferView":4,
			"componentType":5126,
			"count":1049,
			"max":[
				-0.9609630107879639,
				-0.03124699927866459,
				0.9898560047149658
			],
			"min":[
				-3.5724740028381348,
				-0.1584009975194931,
				0.3385950028896332
			],
			"type":"VEC3"
		},
		{
			"bufferView":5,
			"componentType":5126,
			"count":1049,
			"type":"VEC3"
		},
		{
			"bufferView":6,
			"componentType":5126,
			"count":1049,
			"type":"VEC2"
		},
		{
			"bufferView":7,
			"componentType":5123,
			"count":5226,
			"type":"SCALAR"
		},
		{
			"bufferView":8,
			"componentType":5126,
			"count":569,
			"max":[
				0.28235000371932983,
				0.7480909824371338,
				1.613916039466858
			],
			"min":[
				-0.2694059908390045,
				0.475039005279541,
				0.31215900182724
			],
			"type":"VEC3"
		},
		{
			"bufferView":9,
			"componentType":5126,
			"count":569,
			"type":"VEC3"
		},
		{
			"bufferView":10,
			"componentType":5126,
			"count":569,
			"type":"VEC2"
		},
		{
			"bufferView":11,
			"componentType":5123,
			"count":2892,
			"type":"SCALAR"
		},
		{
			"bufferView":12,
			"componentType":5126,
			"count":993,
			"max":[
				0.16184799373149872,
				1.3567990064620972,
				4.14218807220459
			],
			"min":[
				0.05751999840140343,
				0.07503899931907654,
				3.275209903717041
			],
			"type":"VEC3"
		},
		{
			"bufferView":13,
			"componentType":5126,
			"count":993,
			"type":"VEC3"
		},
		{
			"bufferView":14,
			"componentType":5126,
			"count":993,
			"type":"VEC2"
		},
		{
			"bufferView":15,
			"componentType":5123,
			"count":5010,
			"type":"SCALAR"
		},
		{
			"bufferView":16,
			"componentType":5126,
			"count":6413,
			"max":[
				3.4766669273376465,
				1.156298041343689,
				3.582029104232788
			],
			"min":[
				-3.598336935043335,
				-0.4749610126018524,
				-1.607146978378296
			],
			"type":"VEC3"
		},
		{
			"bufferView":17,
			"componentType":5126,
			"count":6413,
			"type":"VEC3"
		},
		{
			"bufferView":18,
			"componentType":5126,
			"count":6413,
			"type":"VEC2"
		},
		{
			"bufferView":19,
			"componentType":5123,
			"count":32124,
			"type":"SCALAR"
		},
		{
			"bufferView":20,
			"componentType":5126,
			"count":1055,
			"max":[
				3.4922618865966797,
				-0.029625000432133675,
				0.9017530083656311
			],
			"min":[
				0.9214349985122681,
				-0.1567869931459427,
				0.010342000052332878
			],
			"type":"VEC3"
		},
		{
			"bufferView":21,
			"componentType":5126,
			"count":1055,
			"type":"VEC3"
		},
		{
			"bufferView":22,
			"componentType":5126,
			"count":1055,
			"type":"VEC2"
		},
		{
			"bufferView":23,
			"componentType":5123,
			"count":5238,
			"type":"SCALAR"
		},
		{
			"bufferView":24,
			"componentType":5126,
			"count":1089,
			"max":[
				0.6801090240478516,
				-0.2005160003900528,
				-0.2273149937391281
			],
			"min":[
				-0.8382589817047119,
				-1.0454490184783936,
				-0.6946210265159607
			],
			"type":"VEC3"
		},
		{
			"bufferView":25,
			"componentType":5126,
			"count":1089,
			"type":"VEC3"
		},
		{
			"bufferView":26,
			"componentType":5126,
			"count":1089,
			"type":"VEC2"
		},
		{
			"bufferView":27,
			"componentType":5123,
			"count":5256,
			"type":"SCALAR"
		},
		{
			"bufferView":28,
			"componentType":5126,
			"count":4925,
			"max":[
				-0.7468109726905823,
				-0.7733089923858643,
				-0.07619299739599228
			],
			"min":[
				-0.9204090237617493,
				-1.0462239980697632,
				-0.8994510173797607
			],
			"type":"VEC3"
		},
		{
			"bufferView":29,
			"componentType":5126,
			"count":4925,
			"type":"VEC3"
		},
		{
			"bufferView":30,
			"componentType":5126,
			"count":4925,
			"type":"VEC2"
		},
		{
			"bufferView":31,
			"componentType":5123,
			"count":27018,
			"type":"SCALAR"
		},
		{
			"bufferView":32,
			"componentType":5126,
			"count":797,
			"max":[
				-0.7996060252189636,
				-0.8452420234680176,
				-0.40947699546813965
			],
			"min":[
				-0.8731589913368225,
				-1.124627947807312,
				-0.6911730170249939
			],
			"type":"VEC3"
		},
		{
			"bufferView":33,
			"componentType":5126,
			"count":797,
			"type":"VEC3"
		},
		{
			"bufferView":34,
			"componentType":5126,
			"count":797,
			"type":"VEC2"
		},
		{
			"bufferView":35,
			"componentType":5123,
			"count":3504,
			"type":"SCALAR"
		},
		{
			"bufferView":36,
			"componentType":5126,
			"count":4914,
			"max":[
				0.7596660256385803,
				-0.7733089923858643,
				-0.1463090032339096
			],
			"min":[
				0.5858460068702698,
				-1.0462239980697632,
				-0.9695249795913696
			],
			"type":"VEC3"
		},
		{
			"bufferView":37,
			"componentType":5126,
			"count":4914,
			"type":"VEC3"
		},
		{
			"bufferView":38,
			"componentType":5126,
			"count":4914,
			"type":"VEC2"
		},
		{
			"bufferView":39,
			"componentType":5123,
			"count":27018,
			"type":"SCALAR"
		},
		{
			"bufferView":40,
			"componentType":5126,
			"count":801,
			"max":[
				0.7066019773483276,
				-0.8452420234680176,
				-0.4796159863471985
			],
			"min":[
				0.6330490112304688,
				-1.124627947807312,
				-0.7613120079040527
			],
			"type":"VEC3"
		},
		{
			"bufferView":41,
			"componentType":5126,
			"count":801,
			"type":"VEC3"
		},
		{
			"bufferView":42,
			"componentType":5126,
			"count":801,
			"type":"VEC2"
		},
		{
			"bufferView":43,
			"componentType":5123,
			"count":3504,
			"type":"SCALAR"
		},
		{
			"bufferView":44,
			"componentType":5126,
			"count":1212,
			"max":[
				0.011700999923050404,
				0.21969500184059143,
				-1.6290299892425537
			],
			"min":[
				-0.27846598625183105,
				-0.06953900307416916,
				-2.03529691696167
			],
			"type":"VEC3"
		},
		{
			"bufferView":45,
			"componentType":5126,
			"count":1212,
			"type":"VEC3"
		},
		{
			"bufferView":46,
			"componentType":5126,
			"count":1212,
			"type":"VEC2"
		},
		{
			"bufferView":47,
			"componentType":5123,
			"count":6648,
			"type":"SCALAR"
		},
		{
			"bufferView":48,
			"componentType":5126,
			"count":218,
			"max":[
				-0.02950800023972988,
				0.17530900239944458,
				-1.5828020572662354
			],
			"min":[
				-0.23264099657535553,
				-0.025231000036001205,
				-1.6404080390930176
			],
			"type":"VEC3"
		},
		{
			"bufferView":49,
			"componentType":5126,
			"count":218,
			"type":"VEC3"
		},
		{
			"bufferView":50,
			"componentType":5126,
			"count":218,
			"type":"VEC2"
		},
		{
			"bufferView":51,
			"componentType":5123,
			"count":492,
			"type":"SCALAR"
		},
		{
			"bufferView":52,
			"componentType":5126,
			"count":268,
			"max":[
				0.7887579798698425,
				0.9944159984588623,
				-1.5928449630737305
			],
			"min":[
				-1.053961992263794,
				-0.844336986541748,
				-1.6959619522094727
			],
			"type":"VEC3"
		},
		{
			"bufferView":53,
			"componentType":5126,
			"count":268,
			"type":"VEC3"
		},
		{
			"bufferView":54,
			"componentType":5126,
			"count":268,
			"type":"VEC2"
		},
		{
			"bufferView":55,
			"componentType":5123,
			"count":792,
			"type":"SCALAR"
		}
	],
	"bufferViews":[
		{
			"buffer":0,
			"byteLength":21108,
			"byteOffset":0,
			"target":34962
		},
		{
			"buffer":0,
			"byteLength":21108,
			"byteOffset":21108,
			"target":34962
		},
		{
			"buffer":0,
			"byteLength":14072,
			"byteOffset":42216,
			"target":34962
		},
		{
			"buffer":0,
			"byteLength":18180,
			"byteOffset":56288,
			"target":34963
		},
		{
			"buffer":0,
			"byteLength":12588,
			"byteOffset":74468,
			"target":34962
		},
		{
			"buffer":0,
			"byteLength":12588,
			"byteOffset":87056,
			"target":34962
		},
		{
			"buffer":0,
			"byteLength":8392,
			"byteOffset":99644,
			"target":34962
		},
		{
			"buffer":0,
			"byteLength":10452,
			"byteOffset":108036,
			"target":34963
		},
		{
			"buffer":0,
			"byteLength":6828,
			"byteOffset":118488,
			"target":34962
		},
		{
			"buffer":0,
			"byteLength":6828,
			"byteOffset":125316,
			"target":34962
		},
		{
			"buffer":0,
			"byteLength":4552,
			"byteOffset":132144,
			"target":34962
		},
		{
			"buffer":0,
			"byteLength":5784,
			"byteOffset":136696,
			"target":34963
		},
		{
			"buffer":0,
			"byteLength":11916,
			"byteOffset":142480,
			"target":34962
		},
		{
			"buffer":0,
			"byteLength":11916,
			"byteOffset":154396,
			"target":34962
		},
		{
			"buffer":0,
			"byteLength":7944,
			"byteOffset":166312,
			"target":34962
		},
		{
			"buffer":0,
			"byteLength":10020,
			"byteOffset":174256,
			"target":34963
		},
		{
			"buffer":0,
			"byteLength":76956,
			"byteOffset":184276,
			"target":34962
		},
		{
			"buffer":0,
			"byteLength":76956,
			"byteOffset":261232,
			"target":34962
		},
		{
			"buffer":0,
			"byteLength":51304,
			"byteOffset":338188,
			"target":34962
		},
		{
			"buffer":0,
			"byteLength":64248,
			"byteOffset":389492,
			"target":34963
		},
		{
			"buffer":0,
			"byteLength":12660,
			"byteOffset":453740,
			"target":34962
		},
		{
			"buffer":0,
			"byteLength":12660,
			"byteOffset":466400,
			"target":34962
		},
		{
			"buffer":0,
			"byteLength":8440,
			"byteOffset":479060,
			"target":34962
		},
		{
			"buffer":0,
			"byteLength":10476,
			"byteOffset":487500,
			"target":34963
		},
		{
			"buffer":0,
			"byteLength":13068,
			"byteOffset":497976,
			"target":34962
		},
		{
			"buffer":0,
			"byteLength":13068,
			"byteOffset":511044,
			"target":34962
		},
		{
			"buffer":0,
			"byteLength":8712,
			"byteOffset":524112,
			"target":34962
		},
		{
			"buffer":0,
			"byteLength":10512,
			"byteOffset":532824,
			"target":34963
		},
		{
			"buffer":0,
			"byteLength":59100,
			"byteOffset":543336,
			"target":34962
		},
		{
			"buffer":0,
			"byteLength":59100,
			"byteOffset":602436,
			"target":34962
		},
		{
			"buffer":0,
			"byteLength":39400,
			"byteOffset":661536,
			"target":34962
		},
		{
			"buffer":0,
			"byteLength":54036,
			"byteOffset":700936,
			"target":34963
		},
		{
			"buffer":0,
			"byteLength":9564,
			"byteOffset":754972,
			"target":34962
		},
		{
			"buffer":0,
			"byteLength":9564,
			"byteOffset":764536,
			"target":34962
		},
		{
			"buffer":0,
			"byteLength":6376,
			"byteOffset":774100,
			"target":34962
		},
		{
			"buffer":0,
			"byteLength":7008,
			"byteOffset":780476,
			"target":34963
		},
		{
			"buffer":0,
			"byteLength":58968,
			"byteOffset":787484,
			"target":34962
		},
		{
			"buffer":0,
			"byteLength":58968,
			"byteOffset":846452,
			"target":34962
		},
		{
			"buffer":0,
			"byteLength":39312,
			"byteOffset":905420,
			"target":34962
		},
		{
			"buffer":0,
			"byteLength":54036,
			"byteOffset":944732,
			"target":34963
		},
		{
			"buffer":0,
			"byteLength":9612,
			"byteOffset":998768,
			"target":34962
		},
		{
			"buffer":0,
			"byteLength":9612,
			"byteOffset":1008380,
			"target":34962
		},
		{
			"buffer":0,
			"byteLength":6408,
			"byteOffset":1017992,
			"target":34962
		},
		{
			"buffer":0,
			"byteLength":7008,
			"byteOffset":1024400,
			"target":34963
		},
		{
			"buffer":0,
			"byteLength":14544,
			"byteOffset":1031408,
			"target":34962
		},
		{
			"buffer":0,
			"byteLength":14544,
			"byteOffset":1045952,
			"target":34962
		},
		{
			"buffer":0,
			"byteLength":9696,
			"byteOffset":1060496,
			"target":34962
		},
		{
			"buffer":0,
			"byteLength":13296,
			"byteOffset":1070192,
			"target":34963
		},
		{
			"buffer":0,
			"byteLength":2616,
			"byteOffset":1083488,
			"target":34962
		},
		{
			"buffer":0,
			"byteLength":2616,
			"byteOffset":1086104,
			"target":34962
		},
		{
			"buffer":0,
			"byteLength":1744,
			"byteOffset":1088720,
			"target":34962
		},
		{
			"buffer":0,
			"byteLength":984,
			"byteOffset":1090464,
			"target":34963
		},
		{
			"buffer":0,
			"byteLength":3216,
			"byteOffset":1091448,
			"target":34962
		},
		{
			"buffer":0,
			"byteLength":3216,
			"byteOffset":1094664,
			"target":34962
		},
		{
			"buffer":0,
			"byteLength":2144,
			"byteOffset":1097880,
			"target":34962
		},
		{
			"buffer":0,
			"byteLength":1584,
			"byteOffset":1100024,
			"target":34963
		}
	],
	"buffers":[
		{
			"byteLength":1101608,
			"uri":"model.bin"
		}
	]
}
